<svg width="24" height="24" viewBox="0 0 24 24" fill="none" xmlns="http://www.w3.org/2000/svg">
<path d="M9.54545 15.9813V8.86883L15.8182 12.4252L9.54545 15.9813ZM23.4985 6.63087C23.2225 5.59507 22.4092 4.77943 21.3766 4.50261C19.505 3.99952 12 3.99952 12 3.99952C12 3.99952 4.495 3.99952 2.62335 4.50261C1.59076 4.77943 0.777485 5.59507 0.501509 6.63087C0 8.50817 0 12.4251 0 12.4251C0 12.4251 0 16.3419 0.501509 18.2193C0.777485 19.255 1.59076 20.0707 2.62335 20.3476C4.495 20.8506 12 20.8506 12 20.8506C12 20.8506 19.505 20.8506 21.3766 20.3476C22.4092 20.0707 23.2225 19.255 23.4985 18.2193C24 16.3419 24 12.4251 24 12.4251C24 12.4251 24 8.50817 23.4985 6.63087Z" fill="white"/>
</svg>
